# xmcd CD database file
#
# Track frame offsets:
#	187
#	24327
#	46120
#	68670
#	89047
#	117522
#	141572
#	160540
#	185475
#	208710
#	232375
#	261885
#
# Disc length: 3680 seconds
#
# Revision: 9
# Processed by: cddbd v1.5.2PL0 Copyright (c) Steve Scherf et al.
# Submitted via: CDex 1.70beta3
#
DISCID=af0e5e0c
DTITLE=Joan Osborne - Relish
DYEAR=1995
DGENRE=Pop
TTITLE0=St. Teresa
TTITLE1=Man In The Long Black Coat
TTITLE2=Right Hand Man
TTITLE3=Pensacola
TTITLE4=Dracula Moon
TTITLE5=One Of Us
TTITLE6=Ladder
TTITLE7=Spider Web
TTITLE8=Let's Just Get Naked
TTITLE9=Help Me
TTITLE10=Crazy Baby
TTITLE11=Lumina
EXTD=YEAR: 1995
EXTT0=
EXTT1=
EXTT2=
EXTT3=
EXTT4=
EXTT5=
EXTT6=
EXTT7=
EXTT8=
EXTT9=
EXTT10=
EXTT11=
PLAYORDER=
